<svg width="38" height="42" viewBox="0 0 38 42" fill="none" xmlns="http://www.w3.org/2000/svg">
<g filter="url(#filter0_d_162_3)">
<path d="M8.36323 27.1698H34V0H8.29248C7.15517 0.00365668 6.06548 0.457073 5.26128 1.26128C4.45707 2.06548 4.00366 3.15517 4 4.29248V29.3101H4.00078C4.00078 29.3208 4 29.3314 4 29.3422C4 31.8469 5.96571 33.9625 8.29248 33.9625H34V31.6981H8.29248C7.23094 31.6981 6.26415 30.5752 6.26415 29.342C6.26415 28.1646 7.22535 27.1698 8.36323 27.1698ZM26.6415 2.28771V14.5153L23.217 11.5089L19.8491 14.4976V2.28771H26.6415ZM17.5849 2.26415V17.5472H19.8237L23.2252 14.5288L26.6631 17.5472H28.9057V2.26415H31.7358V24.9057H10.7981L10.7925 2.26415H17.5849ZM8.29248 2.26415H8.5283L8.53368 24.9057H8.36295C7.62674 24.9058 6.9033 25.0981 6.26415 25.4634V4.31017C6.26242 3.77006 6.475 3.25132 6.85525 2.86775C7.2355 2.48418 7.75238 2.26711 8.29248 2.26415Z" fill="#F8EDE3"/>
</g>
<defs>
<filter id="filter0_d_162_3" x="0" y="0" width="38" height="41.9625" filterUnits="userSpaceOnUse" color-interpolation-filters="sRGB">
<feFlood flood-opacity="0" result="BackgroundImageFix"/>
<feColorMatrix in="SourceAlpha" type="matrix" values="0 0 0 0 0 0 0 0 0 0 0 0 0 0 0 0 0 0 127 0" result="hardAlpha"/>
<feOffset dy="4"/>
<feGaussianBlur stdDeviation="2"/>
<feComposite in2="hardAlpha" operator="out"/>
<feColorMatrix type="matrix" values="0 0 0 0 0 0 0 0 0 0 0 0 0 0 0 0 0 0 0.25 0"/>
<feBlend mode="normal" in2="BackgroundImageFix" result="effect1_dropShadow_162_3"/>
<feBlend mode="normal" in="SourceGraphic" in2="effect1_dropShadow_162_3" result="shape"/>
</filter>
</defs>
</svg>
