<svg width="32" height="30" viewBox="0 0 32 30" fill="none" xmlns="http://www.w3.org/2000/svg">
<g filter="url(#filter0_d_1_47)">
<path d="M11.7254 22C12.6735 22 13.4422 21.1792 13.4422 20.1667C13.4422 19.1542 12.6735 18.3334 11.7254 18.3334C10.7773 18.3334 10.0086 19.1542 10.0086 20.1667C10.0086 21.1792 10.7773 22 11.7254 22Z" fill="#F8EDE3"/>
<path d="M23.7428 22C24.6909 22 25.4595 21.1792 25.4595 20.1667C25.4595 19.1542 24.6909 18.3334 23.7428 18.3334C22.7946 18.3334 22.026 19.1542 22.026 20.1667C22.026 21.1792 22.7946 22 23.7428 22Z" fill="#F8EDE3"/>
<path d="M26.79 3.25302C26.6695 3.0955 26.5175 2.96863 26.3453 2.88162C26.1731 2.79461 25.9849 2.74965 25.7943 2.75H9.46629L9.13742 0.757396C9.10235 0.545147 8.99837 0.352879 8.84375 0.214367C8.68912 0.0758543 8.49374 -4.52842e-05 8.29191 2.02699e-08H4.85838C4.63073 2.02699e-08 4.41239 0.0965773 4.25141 0.268486C4.09044 0.440394 4 0.673552 4 0.916667C4 1.15978 4.09044 1.39294 4.25141 1.56485C4.41239 1.73676 4.63073 1.83333 4.85838 1.83333H7.57194L10.0216 16.6593C10.0566 16.8715 10.1606 17.0638 10.3152 17.2023C10.4698 17.3408 10.6652 17.4167 10.8671 17.4167H24.6012C24.8288 17.4167 25.0472 17.3201 25.2081 17.1482C25.3691 16.9763 25.4596 16.7431 25.4596 16.5C25.4596 16.2569 25.3691 16.0237 25.2081 15.8518C25.0472 15.6799 24.8288 15.5833 24.6012 15.5833H11.587L11.2844 13.75H24.2492C24.5469 13.7496 24.8353 13.6394 25.0657 13.438C25.296 13.2366 25.4541 12.9564 25.5132 12.6448L27.0583 4.39484C27.0955 4.19518 27.0908 3.98919 27.0444 3.79173C26.998 3.59426 26.9111 3.41027 26.79 3.25302Z" fill="#F8EDE3"/>
</g>
<defs>
<filter id="filter0_d_1_47" x="0" y="0" width="31.0831" height="30" filterUnits="userSpaceOnUse" color-interpolation-filters="sRGB">
<feFlood flood-opacity="0" result="BackgroundImageFix"/>
<feColorMatrix in="SourceAlpha" type="matrix" values="0 0 0 0 0 0 0 0 0 0 0 0 0 0 0 0 0 0 127 0" result="hardAlpha"/>
<feOffset dy="4"/>
<feGaussianBlur stdDeviation="2"/>
<feComposite in2="hardAlpha" operator="out"/>
<feColorMatrix type="matrix" values="0 0 0 0 0 0 0 0 0 0 0 0 0 0 0 0 0 0 0.25 0"/>
<feBlend mode="normal" in2="BackgroundImageFix" result="effect1_dropShadow_1_47"/>
<feBlend mode="normal" in="SourceGraphic" in2="effect1_dropShadow_1_47" result="shape"/>
</filter>
</defs>
</svg>
