<svg width="25" height="25" viewBox="0 0 25 25" fill="none" xmlns="http://www.w3.org/2000/svg">
<path d="M24.5833 17.5629C24.5833 21.9612 21.9612 24.5833 17.5629 24.5833H16.125C15.4604 24.5833 14.9167 24.0395 14.9167 23.375V16.4029C14.9167 16.0766 15.1825 15.7987 15.5087 15.7987L17.6354 15.7625C17.8046 15.7504 17.9496 15.6295 17.9858 15.4604L18.4087 13.1525C18.445 12.935 18.2758 12.7295 18.0462 12.7295L15.4725 12.7658C15.1342 12.7658 14.8683 12.5 14.8562 12.1737L14.8079 9.21329C14.8079 9.01996 14.965 8.8508 15.1704 8.8508L18.0704 8.80246C18.2758 8.80246 18.4329 8.64539 18.4329 8.43997L18.3846 5.53995C18.3846 5.33453 18.2275 5.17746 18.0221 5.17746L14.7596 5.2258C12.7537 5.26205 11.1587 6.90538 11.195 8.91121L11.2554 12.2341C11.2675 12.5725 11.0017 12.8383 10.6633 12.8504L9.21332 12.8745C9.00791 12.8745 8.85083 13.0316 8.85083 13.237L8.88708 15.5329C8.88708 15.7383 9.04416 15.8954 9.24957 15.8954L10.6996 15.8712C11.0379 15.8712 11.3037 16.137 11.3158 16.4633L11.4246 23.3508C11.4367 24.0275 10.8929 24.5833 10.2162 24.5833H7.43707C3.03874 24.5833 0.416656 21.9612 0.416656 17.5508V7.43704C0.416656 3.03871 3.03874 0.416626 7.43707 0.416626H17.5629C21.9612 0.416626 24.5833 3.03871 24.5833 7.43704V17.5629Z" fill="#F8EDE3"/>
</svg>
