<svg width="34" height="34" viewBox="0 0 34 34" fill="none" xmlns="http://www.w3.org/2000/svg">
<path d="M11.818 6.43693C10.2042 6.50087 8.74701 7.08737 7.96746 7.88174C7.60544 8.25064 7.01843 8.25064 6.65642 7.88184C6.29431 7.51313 6.29422 6.9151 6.65623 6.5462C7.85899 5.32069 9.81637 4.62596 11.7458 4.54946C13.6879 4.47249 15.8082 5.01422 17.293 6.52722C17.655 6.89603 17.655 7.49405 17.2929 7.86285C16.9308 8.23166 16.3438 8.23157 15.9818 7.86276C14.9704 6.83209 13.419 6.37347 11.818 6.43693Z" fill="#F8EDE3"/>
<path fill-rule="evenodd" clip-rule="evenodd" d="M21.2624 20.1961C23.0349 18.0585 24.1033 15.2952 24.1033 12.2778C24.1033 5.49695 18.7076 0 12.0517 0C5.39572 0 0 5.49695 0 12.2778C0 19.0586 5.39572 24.5556 12.0517 24.5556C15.0135 24.5556 17.7259 23.4671 19.8242 21.6613L19.4681 23.7473L26.4337 30.8436L30.2756 26.9296L23.31 19.8333L21.2624 20.1961ZM12.0517 21.7222C17.1716 21.7222 21.3222 17.4938 21.3222 12.2778C21.3222 7.06181 17.1716 2.83334 12.0517 2.83334C6.93175 2.83334 2.78116 7.06181 2.78116 12.2778C2.78116 17.4938 6.93175 21.7222 12.0517 21.7222Z" fill="#F8EDE3"/>
<path d="M27.7447 32.1793L31.5866 28.2653L32.8434 29.5458C33.5506 30.2663 33.5506 31.4345 32.8434 32.155L31.5628 33.4596C30.8555 34.1802 29.7089 34.1802 29.0016 33.4596L27.7447 32.1793Z" fill="#F8EDE3"/>
</svg>
