<svg width="133" height="93" viewBox="0 0 133 93" fill="none" xmlns="http://www.w3.org/2000/svg">
<g filter="url(#filter0_d_9_53)">
<path d="M8.8152 74.375V5.3125H59.375C63.3668 5.3125 66.5978 8.8825 66.5978 13.2812C66.5978 17.68 63.3668 21.25 59.375 21.25H13.6304V85H61.7826C67.0793 85 71.413 80.2188 71.413 74.375V10.625C71.413 4.78125 67.0793 0 61.7826 0H3.99998V74.375H8.8152Z" fill="#F8EDE3"/>
<path d="M59.3702 15.9375C60.6992 15.9375 61.7827 14.7475 61.7827 13.2812C61.7827 11.815 60.704 10.625 59.375 10.625H13.6353V15.9375L59.3702 15.9375Z" fill="#F8EDE3"/>
</g>
<path d="M20.2353 57.482V43.382H25.8753C27.3687 43.382 28.522 43.702 29.3353 44.342C30.1487 44.982 30.5553 45.8887 30.5553 47.062C30.5553 47.942 30.2887 48.6753 29.7553 49.262C29.2353 49.8487 28.5087 50.2353 27.5753 50.422V50.142C28.6153 50.262 29.4287 50.622 30.0153 51.222C30.6153 51.8087 30.9153 52.602 30.9153 53.602C30.9153 54.8553 30.4953 55.8153 29.6553 56.482C28.8287 57.1487 27.6553 57.482 26.1353 57.482H20.2353ZM21.8553 56.142H25.9753C26.9887 56.142 27.7887 55.9487 28.3753 55.562C28.9753 55.162 29.2753 54.502 29.2753 53.582C29.2753 52.6487 28.9753 51.9887 28.3753 51.602C27.7887 51.202 26.9887 51.002 25.9753 51.002H21.8553V56.142ZM21.8553 49.682H25.6353C26.7287 49.682 27.5487 49.4687 28.0953 49.042C28.642 48.6153 28.9153 48.002 28.9153 47.202C28.9153 46.3753 28.642 45.7553 28.0953 45.342C27.5487 44.9153 26.7287 44.702 25.6353 44.702H21.8553V49.682ZM37.7691 57.662C36.8091 57.662 35.9691 57.4553 35.2491 57.042C34.5424 56.6153 33.9958 56.0153 33.6091 55.242C33.2224 54.4553 33.0291 53.5287 33.0291 52.462C33.0291 51.382 33.2224 50.4553 33.6091 49.682C33.9958 48.9087 34.5424 48.3153 35.2491 47.902C35.9691 47.4753 36.8091 47.262 37.7691 47.262C38.7424 47.262 39.5824 47.4753 40.2891 47.902C41.0091 48.3153 41.5624 48.9087 41.9491 49.682C42.3491 50.4553 42.5491 51.382 42.5491 52.462C42.5491 53.5287 42.3491 54.4553 41.9491 55.242C41.5624 56.0153 41.0091 56.6153 40.2891 57.042C39.5824 57.4553 38.7424 57.662 37.7691 57.662ZM37.7691 56.342C38.7291 56.342 39.4891 56.0153 40.0491 55.362C40.6091 54.6953 40.8891 53.7287 40.8891 52.462C40.8891 51.182 40.6024 50.2153 40.0291 49.562C39.4691 48.8953 38.7158 48.562 37.7691 48.562C36.8224 48.562 36.0691 48.8953 35.5091 49.562C34.9491 50.2153 34.6691 51.182 34.6691 52.462C34.6691 53.7287 34.9491 54.6953 35.5091 55.362C36.0691 56.0153 36.8224 56.342 37.7691 56.342ZM49.1949 57.662C48.2349 57.662 47.3949 57.4553 46.6749 57.042C45.9682 56.6153 45.4215 56.0153 45.0349 55.242C44.6482 54.4553 44.4549 53.5287 44.4549 52.462C44.4549 51.382 44.6482 50.4553 45.0349 49.682C45.4215 48.9087 45.9682 48.3153 46.6749 47.902C47.3949 47.4753 48.2349 47.262 49.1949 47.262C50.1682 47.262 51.0082 47.4753 51.7149 47.902C52.4349 48.3153 52.9882 48.9087 53.3749 49.682C53.7749 50.4553 53.9749 51.382 53.9749 52.462C53.9749 53.5287 53.7749 54.4553 53.3749 55.242C52.9882 56.0153 52.4349 56.6153 51.7149 57.042C51.0082 57.4553 50.1682 57.662 49.1949 57.662ZM49.1949 56.342C50.1549 56.342 50.9149 56.0153 51.4749 55.362C52.0349 54.6953 52.3149 53.7287 52.3149 52.462C52.3149 51.182 52.0282 50.2153 51.4549 49.562C50.8949 48.8953 50.1415 48.562 49.1949 48.562C48.2482 48.562 47.4949 48.8953 46.9349 49.562C46.3749 50.2153 46.0949 51.182 46.0949 52.462C46.0949 53.7287 46.3749 54.6953 46.9349 55.362C47.4949 56.0153 48.2482 56.342 49.1949 56.342ZM56.5007 57.482V42.762H58.1207V51.902H58.1607L62.8207 47.442H64.8607L59.3607 52.682L59.4007 51.862L65.3807 57.482H63.2807L58.1607 52.762H58.1207V57.482H56.5007Z" fill="black"/>
<path d="M86.8197 58.662C85.6864 58.662 84.6731 58.5153 83.7797 58.222C82.8864 57.9287 82.1064 57.5087 81.4397 56.962L82.0397 55.642C82.5064 55.9887 82.9731 56.282 83.4397 56.522C83.9197 56.7487 84.4331 56.922 84.9797 57.042C85.5264 57.1487 86.1397 57.202 86.8197 57.202C88.0064 57.202 88.8864 56.982 89.4597 56.542C90.0331 56.102 90.3197 55.5153 90.3197 54.782C90.3197 54.1553 90.1197 53.6753 89.7197 53.342C89.3197 53.0087 88.6197 52.742 87.6197 52.542L85.5197 52.122C84.2264 51.8553 83.2597 51.422 82.6197 50.822C81.9931 50.222 81.6797 49.4087 81.6797 48.382C81.6797 47.542 81.8931 46.8087 82.3197 46.182C82.7597 45.5553 83.3731 45.0687 84.1597 44.722C84.9464 44.3753 85.8597 44.202 86.8997 44.202C87.8997 44.202 88.8131 44.3553 89.6397 44.662C90.4664 44.9553 91.1731 45.3887 91.7597 45.962L91.1797 47.242C90.5531 46.682 89.8931 46.282 89.1997 46.042C88.5197 45.7887 87.7464 45.662 86.8797 45.662C85.7864 45.662 84.9197 45.902 84.2797 46.382C83.6531 46.8487 83.3397 47.4887 83.3397 48.302C83.3397 48.9553 83.5397 49.4687 83.9397 49.842C84.3397 50.202 84.9997 50.4753 85.9197 50.662L88.0397 51.082C89.3997 51.362 90.3997 51.782 91.0397 52.342C91.6797 52.902 91.9997 53.6887 91.9997 54.702C91.9997 55.4753 91.7864 56.162 91.3597 56.762C90.9464 57.362 90.3531 57.8287 89.5797 58.162C88.8064 58.4953 87.8864 58.662 86.8197 58.662ZM98.0216 58.662C97.0349 58.662 96.2816 58.382 95.7616 57.822C95.2416 57.2487 94.9816 56.3887 94.9816 55.242V49.702H93.0216V48.442H94.9816V45.702L96.6016 45.242V48.442H99.4816V49.702H96.6016V55.062C96.6016 55.862 96.7349 56.4353 97.0016 56.782C97.2816 57.1153 97.6949 57.282 98.2416 57.282C98.4949 57.282 98.7216 57.262 98.9216 57.222C99.1216 57.1687 99.3016 57.1087 99.4616 57.042V58.402C99.2749 58.482 99.0483 58.542 98.7816 58.582C98.5283 58.6353 98.2749 58.662 98.0216 58.662ZM105.476 58.662C104.516 58.662 103.676 58.4553 102.956 58.042C102.249 57.6153 101.703 57.0153 101.316 56.242C100.929 55.4553 100.736 54.5287 100.736 53.462C100.736 52.382 100.929 51.4553 101.316 50.682C101.703 49.9087 102.249 49.3153 102.956 48.902C103.676 48.4753 104.516 48.262 105.476 48.262C106.449 48.262 107.289 48.4753 107.996 48.902C108.716 49.3153 109.269 49.9087 109.656 50.682C110.056 51.4553 110.256 52.382 110.256 53.462C110.256 54.5287 110.056 55.4553 109.656 56.242C109.269 57.0153 108.716 57.6153 107.996 58.042C107.289 58.4553 106.449 58.662 105.476 58.662ZM105.476 57.342C106.436 57.342 107.196 57.0153 107.756 56.362C108.316 55.6953 108.596 54.7287 108.596 53.462C108.596 52.182 108.309 51.2153 107.736 50.562C107.176 49.8953 106.423 49.562 105.476 49.562C104.529 49.562 103.776 49.8953 103.216 50.562C102.656 51.2153 102.376 52.182 102.376 53.462C102.376 54.7287 102.656 55.6953 103.216 56.362C103.776 57.0153 104.529 57.342 105.476 57.342ZM112.742 58.482V50.862C112.742 50.462 112.729 50.0553 112.702 49.642C112.689 49.2287 112.662 48.8287 112.622 48.442H114.182L114.382 50.882L114.102 50.902C114.235 50.302 114.469 49.8087 114.802 49.422C115.135 49.0353 115.529 48.7487 115.982 48.562C116.435 48.362 116.909 48.262 117.402 48.262C117.602 48.262 117.775 48.2687 117.922 48.282C118.082 48.2953 118.229 48.3287 118.362 48.382L118.342 49.822C118.142 49.7553 117.955 49.7153 117.782 49.702C117.622 49.6753 117.435 49.662 117.222 49.662C116.635 49.662 116.122 49.802 115.682 50.082C115.255 50.362 114.929 50.722 114.702 51.162C114.489 51.602 114.382 52.0687 114.382 52.562V58.482H112.742ZM124.39 58.662C122.817 58.662 121.577 58.2087 120.67 57.302C119.764 56.382 119.31 55.1087 119.31 53.482C119.31 52.4287 119.51 51.5153 119.91 50.742C120.31 49.9553 120.87 49.3487 121.59 48.922C122.31 48.482 123.137 48.262 124.07 48.262C124.99 48.262 125.764 48.4553 126.39 48.842C127.017 49.2287 127.497 49.782 127.83 50.502C128.164 51.2087 128.33 52.0487 128.33 53.022V53.622H120.55V52.602H127.27L126.93 52.862C126.93 51.7953 126.69 50.962 126.21 50.362C125.73 49.762 125.017 49.462 124.07 49.462C123.07 49.462 122.29 49.8153 121.73 50.522C121.17 51.2153 120.89 52.1553 120.89 53.342V53.522C120.89 54.7753 121.197 55.7287 121.81 56.382C122.437 57.022 123.31 57.342 124.43 57.342C125.03 57.342 125.59 57.2553 126.11 57.082C126.644 56.8953 127.15 56.5953 127.63 56.182L128.19 57.322C127.75 57.7487 127.19 58.082 126.51 58.322C125.844 58.5487 125.137 58.662 124.39 58.662Z" fill="#F8EDE3"/>
<defs>
<filter id="filter0_d_9_53" x="0" y="0" width="75.413" height="93" filterUnits="userSpaceOnUse" color-interpolation-filters="sRGB">
<feFlood flood-opacity="0" result="BackgroundImageFix"/>
<feColorMatrix in="SourceAlpha" type="matrix" values="0 0 0 0 0 0 0 0 0 0 0 0 0 0 0 0 0 0 127 0" result="hardAlpha"/>
<feOffset dy="4"/>
<feGaussianBlur stdDeviation="2"/>
<feComposite in2="hardAlpha" operator="out"/>
<feColorMatrix type="matrix" values="0 0 0 0 0 0 0 0 0 0 0 0 0 0 0 0 0 0 0.25 0"/>
<feBlend mode="normal" in2="BackgroundImageFix" result="effect1_dropShadow_9_53"/>
<feBlend mode="normal" in="SourceGraphic" in2="effect1_dropShadow_9_53" result="shape"/>
</filter>
</defs>
</svg>
