<svg width="38" height="41" viewBox="0 0 38 41" fill="none" xmlns="http://www.w3.org/2000/svg">
<rect width="38" height="40" rx="10" fill="black"/>
<g filter="url(#filter0_d_14_5)">
<path d="M14.2068 11.1116C12.9497 11.1624 11.8144 11.6282 11.2071 12.259C10.9251 12.5519 10.4677 12.5519 10.1857 12.2591C9.90361 11.9663 9.90354 11.4914 10.1856 11.1984C11.1226 10.2252 12.6475 9.6735 14.1506 9.61275C15.6636 9.55163 17.3154 9.98183 18.4722 11.1833C18.7542 11.4762 18.7542 11.9511 18.4721 12.244C18.19 12.5369 17.7327 12.5368 17.4507 12.2439C16.6627 11.4254 15.4541 11.0612 14.2068 11.1116Z" fill="#F8EDE3"/>
<path fill-rule="evenodd" clip-rule="evenodd" d="M21.5645 22.0381C22.9454 20.3405 23.7778 18.1462 23.7778 15.75C23.7778 10.3652 19.5742 6 14.3889 6C9.20355 6 5 10.3652 5 15.75C5 21.1348 9.20355 25.5 14.3889 25.5C16.6963 25.5 18.8094 24.6356 20.4441 23.2016L20.1667 24.8582L25.5932 30.4934L28.5863 27.3853L23.1597 21.75L21.5645 22.0381ZM14.3889 23.25C18.3776 23.25 21.6111 19.8921 21.6111 15.75C21.6111 11.6079 18.3776 8.25 14.3889 8.25C10.4002 8.25 7.16667 11.6079 7.16667 15.75C7.16667 19.8921 10.4002 23.25 14.3889 23.25Z" fill="#F8EDE3"/>
<path d="M26.6146 31.5541L29.6076 28.4459L30.5868 29.4628C31.1377 30.0349 31.1377 30.9626 30.5868 31.5348L29.5891 32.5709C29.0381 33.143 28.1448 33.143 27.5938 32.5709L26.6146 31.5541Z" fill="#F8EDE3"/>
</g>
<defs>
<filter id="filter0_d_14_5" x="1" y="6" width="36" height="37" filterUnits="userSpaceOnUse" color-interpolation-filters="sRGB">
<feFlood flood-opacity="0" result="BackgroundImageFix"/>
<feColorMatrix in="SourceAlpha" type="matrix" values="0 0 0 0 0 0 0 0 0 0 0 0 0 0 0 0 0 0 127 0" result="hardAlpha"/>
<feOffset dy="4"/>
<feGaussianBlur stdDeviation="2"/>
<feComposite in2="hardAlpha" operator="out"/>
<feColorMatrix type="matrix" values="0 0 0 0 0 0 0 0 0 0 0 0 0 0 0 0 0 0 0.25 0"/>
<feBlend mode="normal" in2="BackgroundImageFix" result="effect1_dropShadow_14_5"/>
<feBlend mode="normal" in="SourceGraphic" in2="effect1_dropShadow_14_5" result="shape"/>
</filter>
</defs>
</svg>
