<svg width="26" height="26" viewBox="0 0 26 26" fill="none" xmlns="http://www.w3.org/2000/svg">
<path d="M13 0C5.81953 0 0 5.81953 0 13C0 20.1805 5.81953 26 13 26C20.1805 26 26 20.1805 26 13C26 5.81953 20.1805 0 13 0ZM18.1898 10.9789C18.1949 11.0906 18.1949 11.2074 18.1949 11.3242C18.1949 14.8535 15.5086 18.9262 10.593 18.9262C9.08477 18.9262 7.67812 18.4844 6.5 17.7277C6.7082 17.7531 6.92148 17.7633 7.13984 17.7633C8.38906 17.7633 9.5418 17.3367 10.4559 16.6207C9.28789 16.6004 8.29766 15.8285 7.9625 14.7672C8.125 14.7977 8.29258 14.8129 8.46523 14.8129C8.70898 14.8129 8.94766 14.7824 9.17109 14.7164C7.94727 14.4727 7.02812 13.391 7.02812 12.0961V12.0656C7.38867 12.2637 7.8 12.3855 8.23672 12.4008C7.5207 11.9234 7.04844 11.1008 7.04844 10.1766C7.04844 9.68906 7.18047 9.22695 7.40898 8.83086C8.7293 10.4508 10.6945 11.5121 12.9137 11.6238C12.868 11.4309 12.8426 11.2277 12.8426 11.0145C12.8426 9.5418 14.041 8.34336 15.5137 8.34336C16.2805 8.34336 16.9762 8.66836 17.4637 9.18633C18.073 9.06445 18.6418 8.84609 19.1598 8.53633C18.9617 9.16094 18.5352 9.68398 17.9867 10.0141C18.525 9.94805 19.043 9.80586 19.5203 9.59258C19.1648 10.1309 18.7129 10.598 18.1898 10.9789Z" fill="#F8EDE3"/>
</svg>
