<svg width="46" height="42" viewBox="0 0 46 42" fill="none" xmlns="http://www.w3.org/2000/svg">
<g clip-path="url(#clip0_165_6)" filter="url(#filter0_d_165_6)">
<g filter="url(#filter1_d_165_6)">
<path fill-rule="evenodd" clip-rule="evenodd" d="M39.625 33.25C39.625 33.25 42 33.25 42 30.875C42 28.5 39.625 21.375 30.125 21.375C20.625 21.375 18.25 28.5 18.25 30.875C18.25 33.25 20.625 33.25 20.625 33.25H39.625ZM20.6772 30.875H39.5727C39.5839 30.8737 39.595 30.8721 39.606 30.8703L39.625 30.8655C39.6202 30.2385 39.2284 28.4193 37.82 26.7805C36.509 25.2439 34.2053 23.75 30.125 23.75C26.0471 23.75 23.7434 25.2462 22.43 26.7805C21.0216 28.4193 20.6274 30.2409 20.625 30.8655C20.6424 30.8689 20.6598 30.872 20.6772 30.875ZM30.125 16.625C31.3848 16.625 32.593 16.1246 33.4838 15.2338C34.3746 14.343 34.875 13.1348 34.875 11.875C34.875 10.6152 34.3746 9.40704 33.4838 8.51624C32.593 7.62544 31.3848 7.125 30.125 7.125C28.8652 7.125 27.657 7.62544 26.7662 8.51624C25.8754 9.40704 25.375 10.6152 25.375 11.875C25.375 13.1348 25.8754 14.343 26.7662 15.2338C27.657 16.1246 28.8652 16.625 30.125 16.625ZM37.25 11.875C37.25 12.8107 37.0657 13.7372 36.7076 14.6016C36.3496 15.4661 35.8248 16.2515 35.1631 16.9131C34.5015 17.5748 33.7161 18.0996 32.8516 18.4576C31.9872 18.8157 31.0607 19 30.125 19C29.1893 19 28.2628 18.8157 27.3984 18.4576C26.5339 18.0996 25.7485 17.5748 25.0869 16.9131C24.4252 16.2515 23.9004 15.4661 23.5424 14.6016C23.1843 13.7372 23 12.8107 23 11.875C23 9.98533 23.7507 8.17306 25.0869 6.83686C26.4231 5.50067 28.2353 4.75 30.125 4.75C32.0147 4.75 33.8269 5.50067 35.1631 6.83686C36.4993 8.17306 37.25 9.98533 37.25 11.875ZM20.473 22.04C19.523 21.7408 18.5436 21.5442 17.5517 21.4534C16.9944 21.4004 16.4349 21.3742 15.875 21.375C6.375 21.375 4 28.5 4 30.875C4 32.4591 4.79088 33.25 6.375 33.25H16.388C16.0359 32.5086 15.8603 31.6957 15.875 30.875C15.875 28.4763 16.7704 26.0252 18.4638 23.978C19.0409 23.2797 19.713 22.6266 20.473 22.04ZM15.685 23.75C11.7235 23.7975 9.47438 25.27 8.18 26.7805C6.76212 28.4288 6.375 30.2551 6.375 30.875H13.5C13.5 28.3931 14.2671 25.9207 15.685 23.75ZM7.5625 13.0625C7.5625 11.1728 8.31317 9.36056 9.64936 8.02436C10.9856 6.68817 12.7978 5.9375 14.6875 5.9375C16.5772 5.9375 18.3894 6.68817 19.7256 8.02436C21.0618 9.36056 21.8125 11.1728 21.8125 13.0625C21.8125 14.9522 21.0618 16.7644 19.7256 18.1006C18.3894 19.4368 16.5772 20.1875 14.6875 20.1875C12.7978 20.1875 10.9856 19.4368 9.64936 18.1006C8.31317 16.7644 7.5625 14.9522 7.5625 13.0625ZM14.6875 8.3125C13.4277 8.3125 12.2195 8.81294 11.3287 9.70374C10.4379 10.5945 9.9375 11.8027 9.9375 13.0625C9.9375 14.3223 10.4379 15.5305 11.3287 16.4213C12.2195 17.3121 13.4277 17.8125 14.6875 17.8125C15.9473 17.8125 17.1555 17.3121 18.0463 16.4213C18.9371 15.5305 19.4375 14.3223 19.4375 13.0625C19.4375 11.8027 18.9371 10.5945 18.0463 9.70374C17.1555 8.81294 15.9473 8.3125 14.6875 8.3125Z" fill="#F8EDE3"/>
</g>
</g>
<defs>
<filter id="filter0_d_165_6" x="0" y="0" width="46" height="46" filterUnits="userSpaceOnUse" color-interpolation-filters="sRGB">
<feFlood flood-opacity="0" result="BackgroundImageFix"/>
<feColorMatrix in="SourceAlpha" type="matrix" values="0 0 0 0 0 0 0 0 0 0 0 0 0 0 0 0 0 0 127 0" result="hardAlpha"/>
<feOffset dy="4"/>
<feGaussianBlur stdDeviation="2"/>
<feComposite in2="hardAlpha" operator="out"/>
<feColorMatrix type="matrix" values="0 0 0 0 0 0 0 0 0 0 0 0 0 0 0 0 0 0 0.25 0"/>
<feBlend mode="normal" in2="BackgroundImageFix" result="effect1_dropShadow_165_6"/>
<feBlend mode="normal" in="SourceGraphic" in2="effect1_dropShadow_165_6" result="shape"/>
</filter>
<filter id="filter1_d_165_6" x="0" y="4.75" width="46" height="36.5" filterUnits="userSpaceOnUse" color-interpolation-filters="sRGB">
<feFlood flood-opacity="0" result="BackgroundImageFix"/>
<feColorMatrix in="SourceAlpha" type="matrix" values="0 0 0 0 0 0 0 0 0 0 0 0 0 0 0 0 0 0 127 0" result="hardAlpha"/>
<feOffset dy="4"/>
<feGaussianBlur stdDeviation="2"/>
<feComposite in2="hardAlpha" operator="out"/>
<feColorMatrix type="matrix" values="0 0 0 0 0 0 0 0 0 0 0 0 0 0 0 0 0 0 0.25 0"/>
<feBlend mode="normal" in2="BackgroundImageFix" result="effect1_dropShadow_165_6"/>
<feBlend mode="normal" in="SourceGraphic" in2="effect1_dropShadow_165_6" result="shape"/>
</filter>
<clipPath id="clip0_165_6">
<rect width="38" height="38" fill="white" transform="translate(4)"/>
</clipPath>
</defs>
</svg>
