<svg width="98" height="75" viewBox="0 0 98 75" fill="none" xmlns="http://www.w3.org/2000/svg">
<g filter="url(#filter0_d_9_53)">
<path d="M7.52664 58.625V4.1875H44.5568C47.4804 4.1875 49.8469 7.0015 49.8469 10.4688C49.8469 13.936 47.4804 16.75 44.5568 16.75H11.0533V67H46.3202C50.1995 67 53.3735 63.2313 53.3735 58.625V8.375C53.3735 3.76875 50.1995 0 46.3202 0H3.99996V58.625H7.52664Z" fill="#F8EDE3"/>
<path d="M44.5534 12.5624C45.5267 12.5624 46.3203 11.6244 46.3203 10.4687C46.3203 9.31294 45.5303 8.37494 44.5569 8.37494H11.0569V12.5624H44.5534Z" fill="#F8EDE3"/>
</g>
<path d="M14.4301 45.5446V34.2646H18.9421C20.1368 34.2646 21.0594 34.5206 21.7101 35.0326C22.3608 35.5446 22.6861 36.2699 22.6861 37.2086C22.6861 37.9126 22.4728 38.4993 22.0461 38.9686C21.6301 39.4379 21.0488 39.7473 20.3021 39.8966V39.6726C21.1341 39.7686 21.7848 40.0566 22.2541 40.5366C22.7341 41.0059 22.9741 41.6406 22.9741 42.4406C22.9741 43.4433 22.6381 44.2113 21.9661 44.7446C21.3048 45.278 20.3661 45.5446 19.1501 45.5446H14.4301ZM15.7261 44.4726H19.0221C19.8328 44.4726 20.4728 44.318 20.9421 44.0086C21.4221 43.6886 21.6621 43.1606 21.6621 42.4246C21.6621 41.6779 21.4221 41.1499 20.9421 40.8406C20.4728 40.5206 19.8328 40.3606 19.0221 40.3606H15.7261V44.4726ZM15.7261 39.3046H18.7501C19.6248 39.3046 20.2808 39.1339 20.7181 38.7926C21.1554 38.4513 21.3741 37.9606 21.3741 37.3206C21.3741 36.6593 21.1554 36.1633 20.7181 35.8326C20.2808 35.4913 19.6248 35.3206 18.7501 35.3206H15.7261V39.3046ZM28.4571 45.6886C27.6891 45.6886 27.0171 45.5233 26.4411 45.1926C25.8758 44.8513 25.4384 44.3713 25.1291 43.7526C24.8198 43.1233 24.6651 42.3819 24.6651 41.5286C24.6651 40.6646 24.8198 39.9233 25.1291 39.3046C25.4384 38.6859 25.8758 38.2113 26.4411 37.8806C27.0171 37.5393 27.6891 37.3686 28.4571 37.3686C29.2358 37.3686 29.9078 37.5393 30.4731 37.8806C31.0491 38.2113 31.4918 38.6859 31.8011 39.3046C32.1211 39.9233 32.2811 40.6646 32.2811 41.5286C32.2811 42.3819 32.1211 43.1233 31.8011 43.7526C31.4918 44.3713 31.0491 44.8513 30.4731 45.1926C29.9078 45.5233 29.2358 45.6886 28.4571 45.6886ZM28.4571 44.6326C29.2251 44.6326 29.8331 44.3713 30.2811 43.8486C30.7291 43.3153 30.9531 42.5419 30.9531 41.5286C30.9531 40.5046 30.7238 39.7313 30.2651 39.2086C29.8171 38.6753 29.2144 38.4086 28.4571 38.4086C27.6998 38.4086 27.0971 38.6753 26.6491 39.2086C26.2011 39.7313 25.9771 40.5046 25.9771 41.5286C25.9771 42.5419 26.2011 43.3153 26.6491 43.8486C27.0971 44.3713 27.6998 44.6326 28.4571 44.6326ZM37.5977 45.6886C36.8297 45.6886 36.1577 45.5233 35.5817 45.1926C35.0164 44.8513 34.5791 44.3713 34.2697 43.7526C33.9604 43.1233 33.8057 42.3819 33.8057 41.5286C33.8057 40.6646 33.9604 39.9233 34.2697 39.3046C34.5791 38.6859 35.0164 38.2113 35.5817 37.8806C36.1577 37.5393 36.8297 37.3686 37.5977 37.3686C38.3764 37.3686 39.0484 37.5393 39.6137 37.8806C40.1897 38.2113 40.6324 38.6859 40.9417 39.3046C41.2617 39.9233 41.4217 40.6646 41.4217 41.5286C41.4217 42.3819 41.2617 43.1233 40.9417 43.7526C40.6324 44.3713 40.1897 44.8513 39.6137 45.1926C39.0484 45.5233 38.3764 45.6886 37.5977 45.6886ZM37.5977 44.6326C38.3657 44.6326 38.9737 44.3713 39.4217 43.8486C39.8697 43.3153 40.0937 42.5419 40.0937 41.5286C40.0937 40.5046 39.8644 39.7313 39.4057 39.2086C38.9577 38.6753 38.3551 38.4086 37.5977 38.4086C36.8404 38.4086 36.2377 38.6753 35.7897 39.2086C35.3417 39.7313 35.1177 40.5046 35.1177 41.5286C35.1177 42.5419 35.3417 43.3153 35.7897 43.8486C36.2377 44.3713 36.8404 44.6326 37.5977 44.6326ZM43.4424 45.5446V33.7686H44.7384V41.0806H44.7704L48.4984 37.5126H50.1304L45.7304 41.7046L45.7624 41.0486L50.5464 45.5446H48.8664L44.7704 41.7686H44.7384V45.5446H43.4424Z" fill="black"/>
<path d="M63.4391 46.4769C62.5324 46.4769 61.7217 46.3595 61.0071 46.1249C60.2924 45.8902 59.6684 45.5542 59.1351 45.1169L59.6151 44.0609C59.9884 44.3382 60.3617 44.5729 60.7351 44.7649C61.1191 44.9462 61.5297 45.0849 61.9671 45.1809C62.4044 45.2662 62.8951 45.3089 63.4391 45.3089C64.3884 45.3089 65.0924 45.1329 65.5511 44.7809C66.0097 44.4289 66.2391 43.9595 66.2391 43.3729C66.2391 42.8715 66.0791 42.4875 65.7591 42.2209C65.4391 41.9542 64.8791 41.7409 64.0791 41.5809L62.3991 41.2449C61.3644 41.0315 60.5911 40.6849 60.0791 40.2049C59.5777 39.7249 59.3271 39.0742 59.3271 38.2529C59.3271 37.5809 59.4977 36.9942 59.8391 36.4929C60.1911 35.9915 60.6817 35.6022 61.3111 35.3249C61.9404 35.0475 62.6711 34.9089 63.5031 34.9089C64.3031 34.9089 65.0337 35.0315 65.6951 35.2769C66.3564 35.5115 66.9217 35.8582 67.3911 36.3169L66.9271 37.3409C66.4257 36.8929 65.8977 36.5729 65.3431 36.3809C64.7991 36.1782 64.1804 36.0769 63.4871 36.0769C62.6124 36.0769 61.9191 36.2689 61.4071 36.6529C60.9057 37.0262 60.6551 37.5382 60.6551 38.1889C60.6551 38.7115 60.8151 39.1222 61.1351 39.4209C61.4551 39.7089 61.9831 39.9275 62.7191 40.0769L64.4151 40.4129C65.5031 40.6369 66.3031 40.9729 66.8151 41.4209C67.3271 41.8689 67.5831 42.4982 67.5831 43.3089C67.5831 43.9275 67.4124 44.4769 67.0711 44.9569C66.7404 45.4369 66.2657 45.8102 65.6471 46.0769C65.0284 46.3435 64.2924 46.4769 63.4391 46.4769ZM72.4006 46.4769C71.6112 46.4769 71.0086 46.2529 70.5926 45.8049C70.1766 45.3462 69.9686 44.6582 69.9686 43.7409V39.3089H68.4006V38.3009H69.9686V36.1089L71.2646 35.7409V38.3009H73.5686V39.3089H71.2646V43.5969C71.2646 44.2369 71.3712 44.6955 71.5846 44.9729C71.8086 45.2395 72.1392 45.3729 72.5766 45.3729C72.7792 45.3729 72.9606 45.3569 73.1206 45.3249C73.2806 45.2822 73.4246 45.2342 73.5526 45.1809V46.2689C73.4032 46.3329 73.2219 46.3809 73.0086 46.4129C72.8059 46.4555 72.6032 46.4769 72.4006 46.4769ZM78.3642 46.4769C77.5962 46.4769 76.9242 46.3115 76.3482 45.9809C75.7829 45.6395 75.3455 45.1595 75.0362 44.5409C74.7269 43.9115 74.5722 43.1702 74.5722 42.3169C74.5722 41.4529 74.7269 40.7115 75.0362 40.0929C75.3455 39.4742 75.7829 38.9995 76.3482 38.6689C76.9242 38.3275 77.5962 38.1569 78.3642 38.1569C79.1429 38.1569 79.8149 38.3275 80.3802 38.6689C80.9562 38.9995 81.3989 39.4742 81.7082 40.0929C82.0282 40.7115 82.1882 41.4529 82.1882 42.3169C82.1882 43.1702 82.0282 43.9115 81.7082 44.5409C81.3989 45.1595 80.9562 45.6395 80.3802 45.9809C79.8149 46.3115 79.1429 46.4769 78.3642 46.4769ZM78.3642 45.4209C79.1322 45.4209 79.7402 45.1595 80.1882 44.6369C80.6362 44.1035 80.8602 43.3302 80.8602 42.3169C80.8602 41.2929 80.6309 40.5195 80.1722 39.9969C79.7242 39.4635 79.1215 39.1969 78.3642 39.1969C77.6069 39.1969 77.0042 39.4635 76.5562 39.9969C76.1082 40.5195 75.8842 41.2929 75.8842 42.3169C75.8842 43.3302 76.1082 44.1035 76.5562 44.6369C77.0042 45.1595 77.6069 45.4209 78.3642 45.4209ZM84.1768 46.3329V40.2369C84.1768 39.9169 84.1662 39.5915 84.1448 39.2609C84.1342 38.9302 84.1128 38.6102 84.0808 38.3009H85.3288L85.4888 40.2529L85.2648 40.2689C85.3715 39.7889 85.5582 39.3942 85.8248 39.0849C86.0915 38.7755 86.4062 38.5462 86.7688 38.3969C87.1315 38.2369 87.5102 38.1569 87.9048 38.1569C88.0648 38.1569 88.2035 38.1622 88.3208 38.1729C88.4488 38.1835 88.5662 38.2102 88.6728 38.2529L88.6568 39.4049C88.4968 39.3515 88.3475 39.3195 88.2088 39.3089C88.0808 39.2875 87.9315 39.2769 87.7608 39.2769C87.2915 39.2769 86.8808 39.3889 86.5288 39.6129C86.1875 39.8369 85.9262 40.1249 85.7448 40.4769C85.5742 40.8289 85.4888 41.2022 85.4888 41.5969V46.3329H84.1768ZM93.4956 46.4769C92.2369 46.4769 91.2449 46.1142 90.5196 45.3889C89.7942 44.6529 89.4316 43.6342 89.4316 42.3329C89.4316 41.4902 89.5916 40.7595 89.9116 40.1409C90.2316 39.5115 90.6796 39.0262 91.2556 38.6849C91.8316 38.3329 92.4929 38.1569 93.2396 38.1569C93.9756 38.1569 94.5942 38.3115 95.0956 38.6209C95.5969 38.9302 95.9809 39.3729 96.2476 39.9489C96.5142 40.5142 96.6476 41.1862 96.6476 41.9649V42.4449H90.4236V41.6289H95.7996L95.5276 41.8369C95.5276 40.9835 95.3356 40.3169 94.9516 39.8369C94.5676 39.3569 93.9969 39.1169 93.2396 39.1169C92.4396 39.1169 91.8156 39.3995 91.3676 39.9649C90.9196 40.5195 90.6956 41.2715 90.6956 42.2209V42.3649C90.6956 43.3675 90.9409 44.1302 91.4316 44.6529C91.9329 45.1649 92.6316 45.4209 93.5276 45.4209C94.0076 45.4209 94.4556 45.3515 94.8716 45.2129C95.2982 45.0635 95.7036 44.8235 96.0876 44.4929L96.5356 45.4049C96.1836 45.7462 95.7356 46.0129 95.1916 46.2049C94.6582 46.3862 94.0929 46.4769 93.4956 46.4769Z" fill="#F8EDE3"/>
<defs>
<filter id="filter0_d_9_53" x="-6.10352e-05" y="0" width="57.3736" height="75" filterUnits="userSpaceOnUse" color-interpolation-filters="sRGB">
<feFlood flood-opacity="0" result="BackgroundImageFix"/>
<feColorMatrix in="SourceAlpha" type="matrix" values="0 0 0 0 0 0 0 0 0 0 0 0 0 0 0 0 0 0 127 0" result="hardAlpha"/>
<feOffset dy="4"/>
<feGaussianBlur stdDeviation="2"/>
<feComposite in2="hardAlpha" operator="out"/>
<feColorMatrix type="matrix" values="0 0 0 0 0 0 0 0 0 0 0 0 0 0 0 0 0 0 0.25 0"/>
<feBlend mode="normal" in2="BackgroundImageFix" result="effect1_dropShadow_9_53"/>
<feBlend mode="normal" in="SourceGraphic" in2="effect1_dropShadow_9_53" result="shape"/>
</filter>
</defs>
</svg>
