<svg width="25" height="25" viewBox="0 0 25 25" fill="none" xmlns="http://www.w3.org/2000/svg">
<path d="M24.8021 7.41938C24.787 6.3785 24.5945 5.34588 24.226 4.37238C23.5811 2.71 22.268 1.3955 20.6056 0.752002C19.6445 0.390377 18.6284 0.196502 17.5999 0.174502C16.2771 0.115377 15.8578 0.098877 12.5 0.098877C9.14226 0.098877 8.71188 0.098877 7.39876 0.174502C6.37163 0.196502 5.3555 0.390377 4.39438 0.752002C2.73201 1.3955 1.41751 2.71 0.774005 4.37238C0.41238 5.3335 0.21713 6.34963 0.19788 7.37675C0.138755 8.70088 0.12088 9.12025 0.12088 12.478C0.12088 15.8358 0.12088 16.2648 0.19788 17.5793C0.218505 18.6078 0.41238 19.6225 0.774005 20.5864C1.41888 22.2474 2.73201 23.5619 4.39576 24.2054C5.35276 24.5794 6.36888 24.7911 7.40013 24.8241C8.72426 24.8832 9.14363 24.9011 12.5014 24.9011C15.8591 24.9011 16.2895 24.9011 17.6026 24.8241C18.6298 24.8035 19.6459 24.6096 20.6084 24.248C22.2708 23.6031 23.5839 22.2886 24.2288 20.6276C24.5904 19.6651 24.7843 18.6504 24.8049 17.6205C24.864 16.2978 24.8819 15.8784 24.8819 12.5193C24.8791 9.1615 24.8791 8.73525 24.8021 7.41938ZM12.4918 18.8278C8.98001 18.8278 6.13513 15.9829 6.13513 12.4711C6.13513 8.95938 8.98001 6.1145 12.4918 6.1145C16.0008 6.1145 18.8484 8.95938 18.8484 12.4711C18.8484 15.9829 16.0008 18.8278 12.4918 18.8278ZM19.1014 7.36163C18.2805 7.36163 17.6191 6.69888 17.6191 5.87938C17.6191 5.05988 18.2805 4.39713 19.1014 4.39713C19.9195 4.39713 20.5823 5.05988 20.5823 5.87938C20.5823 6.69888 19.9195 7.36163 19.1014 7.36163Z" fill="#F8EDE3"/>
<path d="M12.4917 16.6003C14.7722 16.6003 16.6209 14.7516 16.6209 12.4712C16.6209 10.1907 14.7722 8.34204 12.4917 8.34204C10.2113 8.34204 8.36261 10.1907 8.36261 12.4712C8.36261 14.7516 10.2113 16.6003 12.4917 16.6003Z" fill="#F8EDE3"/>
</svg>
