<svg width="32" height="32" viewBox="0 0 32 32" fill="none" xmlns="http://www.w3.org/2000/svg">
<g filter="url(#filter0_d_1_65)">
<path d="M16 0C9.37097 0 4 5.37097 4 12C4 18.629 9.37097 24 16 24C22.629 24 28 18.629 28 12C28 5.37097 22.629 0 16 0ZM16 4.64516C18.3516 4.64516 20.2581 6.55161 20.2581 8.90323C20.2581 11.2548 18.3516 13.1613 16 13.1613C13.6484 13.1613 11.7419 11.2548 11.7419 8.90323C11.7419 6.55161 13.6484 4.64516 16 4.64516ZM16 21.2903C13.1597 21.2903 10.6145 20.0032 8.91129 17.9903C9.82097 16.2774 11.6016 15.0968 13.6774 15.0968C13.7935 15.0968 13.9097 15.1161 14.021 15.15C14.65 15.3532 15.3081 15.4839 16 15.4839C16.6919 15.4839 17.3548 15.3532 17.979 15.15C18.0903 15.1161 18.2065 15.0968 18.3226 15.0968C20.3984 15.0968 22.179 16.2774 23.0887 17.9903C21.3855 20.0032 18.8403 21.2903 16 21.2903Z" fill="#F8EDE3"/>
</g>
<defs>
<filter id="filter0_d_1_65" x="0" y="0" width="32" height="32" filterUnits="userSpaceOnUse" color-interpolation-filters="sRGB">
<feFlood flood-opacity="0" result="BackgroundImageFix"/>
<feColorMatrix in="SourceAlpha" type="matrix" values="0 0 0 0 0 0 0 0 0 0 0 0 0 0 0 0 0 0 127 0" result="hardAlpha"/>
<feOffset dy="4"/>
<feGaussianBlur stdDeviation="2"/>
<feComposite in2="hardAlpha" operator="out"/>
<feColorMatrix type="matrix" values="0 0 0 0 0 0 0 0 0 0 0 0 0 0 0 0 0 0 0.25 0"/>
<feBlend mode="normal" in2="BackgroundImageFix" result="effect1_dropShadow_1_65"/>
<feBlend mode="normal" in="SourceGraphic" in2="effect1_dropShadow_1_65" result="shape"/>
</filter>
</defs>
</svg>
