<svg width="26" height="26" viewBox="0 0 26 26" fill="none" xmlns="http://www.w3.org/2000/svg">
<path d="M25.4877 6.18329C25.4771 5.64695 25.4339 5.11176 25.3583 4.58066C25.2687 4.10887 25.1164 3.65117 24.9054 3.21972C24.4428 2.30543 23.7007 1.5625 22.7869 1.09891C22.358 0.888553 21.903 0.736324 21.4338 0.64625C20.8987 0.569162 20.3594 0.525137 19.8188 0.514425C19.5895 0.5061 19.2927 0.501988 19.1558 0.501988L6.84613 0.5C6.70971 0.5 6.41286 0.504125 6.18329 0.512287C5.64695 0.522827 5.11175 0.566036 4.58066 0.641675C4.10887 0.731314 3.65117 0.8836 3.21972 1.09449C2.30545 1.55718 1.56251 2.29932 1.09882 3.21309C0.888529 3.64201 0.736308 4.09704 0.646175 4.56616C0.569152 5.10128 0.525123 5.64064 0.514338 6.18116C0.506175 6.4105 0.501988 6.70729 0.501988 6.84416L0.5 19.1539C0.5 19.2902 0.504125 19.5871 0.512287 19.8167C0.522827 20.3531 0.566036 20.8883 0.641675 21.4193C0.731325 21.8911 0.88361 22.3488 1.09449 22.7803C1.55715 23.6945 2.29927 24.4374 3.21301 24.9011C3.64197 25.1114 4.09702 25.2636 4.56616 25.3537C5.10127 25.4308 5.64063 25.4749 6.18116 25.4856C6.41043 25.4938 6.70729 25.498 6.84416 25.498L19.1539 25.5C19.2902 25.5 19.5871 25.4959 19.8166 25.4877C20.353 25.4771 20.8882 25.4339 21.4193 25.3583C21.8911 25.2686 22.3488 25.1163 22.7802 24.9055C23.6945 24.4428 24.4374 23.7007 24.9011 22.7869C25.1114 22.358 25.2636 21.903 25.3537 21.4338C25.4308 20.8987 25.4749 20.3594 25.4857 19.8188C25.4939 19.5895 25.498 19.2927 25.498 19.1558L25.5 6.84613C25.5 6.70979 25.4959 6.41286 25.4877 6.18329ZM13.2709 21.6956H13.2673C11.7794 21.6955 10.3153 21.3227 9.0086 20.6113L4.28449 21.8501L5.54875 17.2336C4.56928 15.5341 4.17786 13.559 4.43518 11.6144C4.6925 9.66979 5.58418 7.86441 6.97198 6.47816C8.35977 5.09192 10.1661 4.20225 12.111 3.94709C14.0559 3.69194 16.0306 4.08556 17.729 5.06692C19.4274 6.04828 20.7546 7.56256 21.5048 9.37496C22.255 11.1874 22.3863 13.1967 21.8784 15.0913C21.3705 16.9859 20.2516 18.6601 18.6954 19.8541C17.1392 21.0482 15.2325 21.6955 13.2709 21.6956Z" fill="#F8EDE3"/>
<path d="M13.2738 5.37634C11.9503 5.37603 10.6508 5.73032 9.51053 6.40237C8.37028 7.07442 7.4309 8.03967 6.79008 9.19776C6.14926 10.3558 5.8304 11.6645 5.86667 12.9875C5.90294 14.3106 6.29301 15.5998 6.99632 16.721L7.17249 17.0012L6.4242 19.7335L9.22749 18.9983L9.49795 19.1588C10.6393 19.8347 11.9414 20.1911 13.2679 20.191H13.2708C15.2337 20.1888 17.1155 19.4077 18.5029 18.0191C19.8903 16.6305 20.6697 14.748 20.6701 12.7851C20.6705 10.8222 19.8918 8.93945 18.505 7.5503C17.1182 6.16116 15.2367 5.37926 13.2738 5.37634ZM17.6306 15.9638C17.4666 16.2344 17.2485 16.4681 16.9898 16.6503C16.7311 16.8324 16.4376 16.9591 16.1276 17.0223C15.6596 17.1024 15.1794 17.0722 14.7251 16.9342C14.294 16.8002 13.8703 16.6437 13.4557 16.4652C11.9179 15.6934 10.6071 14.5352 9.65195 13.104C9.13121 12.4413 8.81522 11.641 8.74277 10.8013C8.73658 10.4547 8.80269 10.1105 8.93687 9.79077C9.07105 9.47104 9.27036 9.18278 9.5221 8.94434C9.59651 8.85948 9.68767 8.79092 9.78985 8.74298C9.89203 8.69505 10.003 8.66877 10.1159 8.66579C10.2642 8.66579 10.4129 8.66717 10.5426 8.67366C10.6793 8.68044 10.8628 8.6217 11.0436 9.05582C11.2291 9.50144 11.6745 10.5971 11.7301 10.7085C11.7654 10.7668 11.7855 10.833 11.7888 10.9011C11.792 10.9692 11.7783 11.0371 11.7487 11.0985C11.6926 11.2323 11.6176 11.3574 11.526 11.4699C11.4147 11.5999 11.2922 11.7601 11.1921 11.8599C11.0805 11.9709 10.9645 12.0914 11.0943 12.3141C11.4288 12.8866 11.8462 13.4062 12.3331 13.8562C12.8612 14.3258 13.4671 14.6997 14.1237 14.9611C14.3463 15.0726 14.4762 15.0539 14.6061 14.9054C14.736 14.7568 15.1627 14.2554 15.3111 14.0326C15.4595 13.8098 15.608 13.8469 15.812 13.9212C16.0161 13.9955 17.1109 14.534 17.3336 14.6454C17.5563 14.7568 17.7047 14.8125 17.7604 14.9054C17.8214 15.2633 17.7762 15.6312 17.6306 15.9638Z" fill="#F8EDE3"/>
</svg>
